<svg width="24" height="24" viewBox="0 0 24 24" fill="none" xmlns="http://www.w3.org/2000/svg">
<path d="M18.6541 17.5949L21.5836 20.5229C21.7202 20.6643 21.7958 20.8538 21.7941 21.0504C21.7924 21.2471 21.7135 21.4352 21.5745 21.5743C21.4354 21.7133 21.2473 21.7922 21.0507 21.7939C20.854 21.7956 20.6646 21.72 20.5231 21.5834L17.5936 18.6539C15.6793 20.2941 13.204 21.129 10.6873 20.9835C8.17065 20.8381 5.80812 19.7235 4.0955 17.8736C2.38287 16.0238 1.45329 13.5826 1.50181 11.0621C1.55032 8.5417 2.57317 6.13803 4.35571 4.35549C6.13825 2.57294 8.54193 1.5501 11.0624 1.50158C13.5828 1.45307 16.024 2.38265 17.8739 4.09527C19.7237 5.80789 20.8383 8.17042 20.9838 10.6871C21.1292 13.2038 20.2943 15.679 18.6541 17.5934V17.5949ZM11.2501 19.4999C13.4382 19.4999 15.5366 18.6307 17.0838 17.0835C18.6309 15.5364 19.5001 13.4379 19.5001 11.2499C19.5001 9.06186 18.6309 6.96344 17.0838 5.41627C15.5366 3.86909 13.4382 2.9999 11.2501 2.9999C9.06209 2.9999 6.96367 3.86909 5.41649 5.41627C3.86932 6.96344 3.00012 9.06186 3.00012 11.2499C3.00012 13.4379 3.86932 15.5364 5.41649 17.0835C6.96367 18.6307 9.06209 19.4999 11.2501 19.4999V19.4999Z" fill="#404040"/>
</svg>
